<svg width="16" height="16" viewBox="0 0 16 16" fill="none" xmlns="http://www.w3.org/2000/svg">
<path d="M14.3384 10.845C14.3384 12.5723 13.5016 13.2477 11.7803 13.2477C11.5771 13.2477 11.3978 13.2298 11.2424 13.1999C10.6626 13.0804 10.4175 12.7457 10.4175 12.3512C10.4175 11.9388 10.6088 11.6937 10.9913 11.5921C11.0631 11.5682 11.1467 11.5563 11.2304 11.5443C11.7922 11.4786 11.9895 11.2096 11.9895 10.5701V9.69147C11.9895 8.82482 12.6589 8.24505 13.8124 8.11356V7.87448C12.6589 7.74299 11.9895 7.16323 11.9895 6.29658V5.42992C11.9895 4.79039 11.7922 4.52143 11.2304 4.45568C11.1408 4.44373 11.0571 4.4258 10.9794 4.40787C10.6028 4.30028 10.4175 4.05523 10.4175 3.6488C10.4175 3.27823 10.6327 2.96145 11.1408 2.82398C11.3141 2.77617 11.5293 2.75226 11.7803 2.75226C13.5016 2.75226 14.3384 3.42765 14.3384 5.15498V5.73474C14.3384 6.38623 14.6014 6.73289 15.2648 6.85841C15.737 6.94806 16 7.27679 16 7.99402C16 8.62758 15.737 9.04596 15.2648 9.12964C14.5835 9.25515 14.3384 9.60779 14.3384 10.2533V10.845Z" fill="#666666"/>
<path d="M6.54762 9.53607V6.55956H6.39819C5.87222 6.55956 5.51958 6.20692 5.51958 5.669C5.51958 5.13108 5.87222 4.77844 6.39819 4.77844H6.54762V4.4258C6.54762 3.62489 6.98991 3.15869 7.77289 3.15869C8.55586 3.15869 8.99816 3.62489 8.99816 4.4258V4.77844H9.42849C9.95446 4.77844 10.3071 5.13705 10.3071 5.669C10.3071 6.20095 9.95446 6.55956 9.42849 6.55956H8.99816V8.99217C8.99816 9.36872 9.12367 9.50021 9.35677 9.5301L9.50022 9.54803C10.0142 9.61377 10.325 9.8409 10.325 10.4087C10.325 11.114 9.50022 11.4726 8.60966 11.4726H8.55586C7.22899 11.4726 6.54762 10.8092 6.54762 9.53607Z" fill="#666666"/>
<path d="M1.66159 10.845V10.2533C1.66159 9.60779 1.41653 9.25515 0.735162 9.12964C0.262985 9.04596 0 8.62758 0 7.99402C0 7.27679 0.262985 6.94806 0.735162 6.85841C1.3986 6.73289 1.66159 6.38623 1.66159 5.73474V5.15498C1.66159 3.42765 2.49836 2.75226 4.21971 2.75226C4.47074 2.75226 4.68591 2.77617 4.85924 2.82398C5.36728 2.96145 5.58245 3.27823 5.58245 3.6488C5.58245 4.05523 5.39716 4.30028 5.02062 4.40787C4.94292 4.4258 4.85924 4.44373 4.76959 4.45568C4.20776 4.52143 4.01052 4.79039 4.01052 5.42992V6.29658C4.01052 7.16323 3.3411 7.74299 2.18756 7.87448V8.11356C3.3411 8.24505 4.01052 8.82482 4.01052 9.69147V10.5701C4.01052 11.2096 4.20776 11.4786 4.76959 11.5443C4.85326 11.5563 4.93694 11.5682 5.00866 11.5921C5.39119 11.6937 5.58245 11.9388 5.58245 12.3512C5.58245 12.7457 5.3374 13.0804 4.75763 13.1999C4.60223 13.2298 4.42293 13.2477 4.21971 13.2477C2.49836 13.2477 1.66159 12.5723 1.66159 10.845Z" fill="#666666"/>
</svg>
